<svg width="16" height="16" viewBox="0 0 16 16" fill="none" xmlns="http://www.w3.org/2000/svg">
<path d="M8 0.5C9.98912 0.5 11.8972 1.28977 13.3037 2.69629C14.7102 4.10281 15.5 6.01088 15.5 8C15.5 9.98912 14.7102 11.8972 13.3037 13.3037C11.8972 14.7102 9.98912 15.5 8 15.5C6.01088 15.5 4.10281 14.7102 2.69629 13.3037C1.28977 11.8972 0.5 9.98912 0.5 8C0.5 6.01088 1.28977 4.10281 2.69629 2.69629C4.10281 1.28977 6.01088 0.5 8 0.5ZM8 3.5C7.60218 3.5 7.22076 3.65815 6.93945 3.93945C6.65815 4.22076 6.5 4.60218 6.5 5V6.5H5C4.60218 6.5 4.22076 6.65815 3.93945 6.93945C3.65815 7.22076 3.5 7.60218 3.5 8C3.5 8.39783 3.65815 8.77924 3.93945 9.06055C4.22076 9.34185 4.60218 9.5 5 9.5H6.5V11C6.5 11.3978 6.65815 11.7792 6.93945 12.0605C7.22076 12.3419 7.60218 12.5 8 12.5C8.39783 12.5 8.77924 12.3419 9.06055 12.0605C9.34185 11.7792 9.5 11.3978 9.5 11V9.5H11C11.3978 9.5 11.7792 9.34185 12.0605 9.06055C12.3419 8.77924 12.5 8.39783 12.5 8C12.5 7.60218 12.3419 7.22076 12.0605 6.93945C11.7792 6.65815 11.3978 6.5 11 6.5H9.5V5C9.5 4.60218 9.34185 4.22076 9.06055 3.93945C8.77924 3.65815 8.39783 3.5 8 3.5Z" fill="black" stroke="#3B82F6"/>
</svg>
