<svg width="16" height="16" viewBox="0 0 16 16" fill="none" xmlns="http://www.w3.org/2000/svg">
<path d="M3.96346 1.13621C3.62162 2.40511 3.5632 3.73997 3.801 5.0445C4.12516 6.82278 4.98328 8.46036 6.26143 9.73852C7.53959 11.0167 9.17717 11.8748 10.9555 12.199C12.2597 12.4367 13.594 12.3771 14.8627 12.0355C14.4064 12.7076 13.8488 13.3087 13.2044 13.8123C12.2042 14.594 11.0292 15.1212 9.78042 15.3491C8.53146 15.577 7.24552 15.4984 6.03357 15.1202C4.82169 14.742 3.71982 14.0755 2.82214 13.1778C1.92445 12.2801 1.25792 11.1783 0.879747 9.96638C0.501576 8.75443 0.422985 7.46849 0.65087 6.21954C0.878782 4.97075 1.40591 3.79576 2.18762 2.79557C2.69123 2.15123 3.29138 1.59252 3.96346 1.13621Z" fill="black" stroke="#374151"/>
</svg>
