<svg width="15" height="15" viewBox="0 0 15 15" fill="none" xmlns="http://www.w3.org/2000/svg">
<path d="M7.02453 0.839397C7.18455 0.387708 7.83003 0.393663 7.9792 0.852205V0.85319L9.05898 4.17432C9.1579 4.47767 9.34961 4.74246 9.60774 4.92998C9.83369 5.09409 10.1003 5.19166 10.3772 5.21372L10.4964 5.21864H13.989C14.4764 5.21864 14.6818 5.84332 14.2855 6.13193L11.4609 8.18412C11.2026 8.3717 11.0101 8.63623 10.9112 8.93977C10.8246 9.20567 10.814 9.48998 10.8787 9.76045L10.9112 9.87572L11.99 13.1969V13.1978C12.1405 13.6608 11.6101 14.0497 11.2126 13.7614L8.38806 11.7092C8.1296 11.5216 7.81781 11.4205 7.49841 11.4205C7.21922 11.4206 6.94615 11.4973 6.70926 11.6422L6.60976 11.7092L3.78517 13.7614C3.39046 14.0483 2.85769 13.6624 3.00882 13.1969L4.08763 9.87572C4.18625 9.57168 4.18658 9.2437 4.08763 8.93977C3.9887 8.63624 3.7962 8.3717 3.53788 8.18412L0.714275 6.13292C0.318502 5.84469 0.523717 5.21963 1.01082 5.21963H4.5024C4.82161 5.21962 5.13268 5.11843 5.39106 4.93096C5.61711 4.76692 5.79271 4.54407 5.89942 4.28762L5.9408 4.17531L7.02059 0.854175L7.02453 0.839397Z" fill="black" stroke="#EAB308"/>
</svg>
