<svg width="14" height="16" viewBox="0 0 14 16" fill="none" xmlns="http://www.w3.org/2000/svg">
<path d="M5 4.5C4.60218 4.5 4.22076 4.65815 3.93945 4.93945C3.65815 5.22076 3.5 5.60218 3.5 6V12C3.5 12.3978 3.65815 12.7792 3.93945 13.0605C4.22076 13.3419 4.60218 13.5 5 13.5C5.39782 13.5 5.77924 13.3419 6.06055 13.0605C6.34185 12.7792 6.5 12.3978 6.5 12V6C6.5 5.60218 6.34185 5.22076 6.06055 4.93945C5.77924 4.65815 5.39782 4.5 5 4.5ZM9 4.5C8.60217 4.5 8.22076 4.65815 7.93945 4.93945C7.65815 5.22076 7.5 5.60218 7.5 6V12C7.5 12.3978 7.65815 12.7792 7.93945 13.0605C8.22076 13.3419 8.60217 13.5 9 13.5C9.39783 13.5 9.77924 13.3419 10.0605 13.0605C10.3419 12.7792 10.5 12.3978 10.5 12V6C10.5 5.60218 10.3419 5.22076 10.0605 4.93945C9.77924 4.65815 9.39783 4.5 9 4.5ZM1.5 3.5H1C0.867392 3.5 0.740253 3.44728 0.646484 3.35352C0.552716 3.25975 0.5 3.13261 0.5 3L0.509766 2.90234C0.528936 2.80611 0.576081 2.71689 0.646484 2.64648C0.740253 2.55272 0.867392 2.5 1 2.5H4.69141L4.8291 2.22363L5.55273 0.776367H5.55371C5.59515 0.693568 5.6586 0.623965 5.7373 0.575195C5.79638 0.538655 5.86238 0.514519 5.93066 0.504883L6 0.5H8C8.09274 0.500099 8.18382 0.526407 8.2627 0.575195C8.3414 0.623964 8.40485 0.693567 8.44629 0.776367H8.44727L9.1709 2.22363L9.30859 2.5H13C13.1326 2.5 13.2597 2.55272 13.3535 2.64648C13.4473 2.74025 13.5 2.86739 13.5 3C13.5 3.13261 13.4473 3.25975 13.3535 3.35352C13.2597 3.44728 13.1326 3.5 13 3.5H12.5V14C12.5 14.3978 12.3419 14.7792 12.0605 15.0605C11.7792 15.3419 11.3978 15.5 11 15.5H3C2.60218 15.5 2.22076 15.3419 1.93945 15.0605C1.65815 14.7792 1.5 14.3978 1.5 14V3.5Z" fill="black" stroke="#EF4444"/>
</svg>
